<svg width="59" height="80" viewBox="0 0 59 80" fill="none" xmlns="http://www.w3.org/2000/svg">
<path d="M0 5.40541C0 2.42008 2.44585 0 5.46296 0H53.537C56.5541 0 59 2.42008 59 5.40541V74.5946C59 77.5799 56.5541 80 53.537 80H5.46296C2.44585 80 0 77.5799 0 74.5946V5.40541Z" fill="black"/>
<path d="M21.8984 37.8378H20.0702C19.9621 37.3175 19.7728 36.8604 19.5025 36.4665C19.2372 36.0726 18.9128 35.742 18.5295 35.4745C18.151 35.2022 17.7308 34.998 17.2689 34.8618C16.8069 34.7256 16.3253 34.6576 15.824 34.6576C14.9099 34.6576 14.0817 34.8861 13.3396 35.3432C12.6025 35.8003 12.0152 36.4738 11.5778 37.3637C11.1453 38.2536 10.929 39.3453 10.929 40.6388C10.929 41.9323 11.1453 43.024 11.5778 43.9139C12.0152 44.8038 12.6025 45.4773 13.3396 45.9344C14.0817 46.3915 14.9099 46.6201 15.824 46.6201C16.3253 46.6201 16.8069 46.552 17.2689 46.4158C17.7308 46.2797 18.151 46.0779 18.5295 45.8104C18.9128 45.5381 19.2372 45.205 19.5025 44.8111C19.7728 44.4124 19.9621 43.9553 20.0702 43.4398H21.8984C21.7608 44.2033 21.5102 44.8865 21.1465 45.4895C20.7828 46.0925 20.3307 46.6055 19.79 47.0286C19.2494 47.4468 18.6425 47.7653 17.9692 47.9841C17.3008 48.2029 16.5857 48.3123 15.824 48.3123C14.5363 48.3123 13.3912 48.0011 12.3887 47.3787C11.3861 46.7562 10.5973 45.8712 10.0223 44.7236C9.44728 43.576 9.15977 42.2144 9.15977 40.6388C9.15977 39.0633 9.44728 37.7017 10.0223 36.5541C10.5973 35.4064 11.3861 34.5214 12.3887 33.899C13.3912 33.2765 14.5363 32.9653 15.824 32.9653C16.5857 32.9653 17.3008 33.0747 17.9692 33.2935C18.6425 33.5124 19.2494 33.8333 19.79 34.2564C20.3307 34.6746 20.7828 35.1852 21.1465 35.7882C21.5102 36.3863 21.7608 37.0695 21.8984 37.8378Z" fill="white"/>
<path d="M23.8147 33.1695H25.9968L31.1277 45.5697H31.3046L36.4354 33.1695H38.6175V48.1081H36.9072V36.7583H36.7598L32.0418 48.1081H30.3905L25.6725 36.7583H25.525V48.1081H23.8147V33.1695Z" fill="white"/>
<path d="M10.3688 68.6486H8.45207L13.9957 53.7101H15.8829L21.4266 68.6486H19.5099L14.9983 56.0734H14.8804L10.3688 68.6486ZM12.4623 62.8133H17.4164L17.9921 64.418H11.8866L12.4623 62.8133Z" fill="white"/>
<path d="M23.3595 68.6486H21.4428L26.9865 53.7101H28.8737L34.4174 68.6486H32.5007L27.9891 56.0734H27.8711L23.3595 68.6486ZM25.4531 62.8133H30.4071L30.9828 64.418H24.8773L25.4531 62.8133Z" fill="white"/>
<path d="M47.7601 61.1794C47.7601 62.7549 47.4726 64.1165 46.8976 65.2641C46.3226 66.4118 45.5338 67.2968 44.5312 67.9192C43.5287 68.5417 42.3836 68.8529 41.0959 68.8529C39.8083 68.8529 38.6632 68.5417 37.6606 67.9192C36.6581 67.2968 35.8693 66.4118 35.2943 65.2641C34.7192 64.1165 34.4317 62.7549 34.4317 61.1794C34.4317 59.6038 34.7192 58.2422 35.2943 57.0946C35.8693 55.947 36.6581 55.0619 37.6606 54.4395C38.6632 53.8171 39.8083 53.5058 41.0959 53.5058C42.3836 53.5058 43.5287 53.8171 44.5312 54.4395C45.5338 55.0619 46.3226 55.947 46.8976 57.0946C47.4726 58.2422 47.7601 59.6038 47.7601 61.1794ZM45.9909 61.1794C45.9909 59.8858 45.7722 58.7941 45.3348 57.9043C44.9023 57.0144 44.315 56.3409 43.5729 55.8838C42.8357 55.4266 42.01 55.1981 41.0959 55.1981C40.1818 55.1981 39.3537 55.4266 38.6116 55.8838C37.8744 56.3409 37.2871 57.0144 36.8497 57.9043C36.4172 58.7941 36.201 59.8858 36.201 61.1794C36.201 62.4729 36.4172 63.5646 36.8497 64.4545C37.2871 65.3444 37.8744 66.0179 38.6116 66.475C39.3537 66.9321 40.1818 67.1606 41.0959 67.1606C42.01 67.1606 42.8357 66.9321 43.5729 66.475C44.315 66.0179 44.9023 65.3444 45.3348 64.4545C45.7722 63.5646 45.9909 62.4729 45.9909 61.1794Z" fill="white"/>
</svg>
